<svg xmlns="http://www.w3.org/2000/svg" viewBox="0 0 399.48 52.8"><defs><style>.cls-1{fill:#db5a26;}</style></defs><title>Asset 1</title><g id="Layer_2" data-name="Layer 2"><g id="Layer_1-2" data-name="Layer 1"><path class="cls-1" d="M0,.79H28.29L43.52,34,58.76.79H86.89V52H71.51l.37-38.35H69.33L50,52H37.06L17.75,13.66H15L15.38,52H0V.79ZM154.26,52c-10.14-20-8.1-16.42-19.74-39.28h-3.11C119.53,36.06,122,31.41,111.6,52H93.77L120.93.79h24.25L172,52ZM178.87.79h16.4V38.94H231.7V52H178.87V.79Zm61,0h16.39V52H239.85V.79ZM316.7,32.23h15.62c.09,2.5.14,4.22.14,5.14a19.42,19.42,0,0,1-1.77,9q-1.83,3.52-7,4.91Q318,52.81,304.09,52.8q-15.34,0-20.67-.49c-4.57-.39-7.94-1.15-10.09-2.25A10.25,10.25,0,0,1,268,43.57Q266.95,40,267,26.75a123.08,123.08,0,0,1,.57-14.81q.83-5.74,4.46-8.34c1.85-1.32,4.82-2.26,8.89-2.78S292.67,0,303.72,0c6.22,0,10.76.14,13.59.41,4.15.41,7.17,1.2,9.08,2.41a9.76,9.76,0,0,1,4.45,6.45,31.29,31.29,0,0,1,.68,6.9c0,.47,0,1.45,0,3H315.89c-.11-2.39-.41-3.91-.91-4.59s-2.31-1.24-5.22-1.47-6.45-.3-10.57-.3a95,95,0,0,0-11.26.45,5.14,5.14,0,0,0-4.65,4.1,43.2,43.2,0,0,0-.72,9.31,39.1,39.1,0,0,0,.72,9.12c.6,2.18,2.24,3.43,4.94,3.79a102.42,102.42,0,0,0,11,.41q9.45,0,12.8-.37c2.05-.23,3.34-1,3.89-2.22a14.69,14.69,0,0,0,.75-5.15ZM342.45.79h56.73v12H342.45V.79Zm15.38,19.44h39.25V31.49H357.83V39.7h41.65V52h-57V20.23Z"/></g></g></svg>